<svg xmlns="http://www.w3.org/2000/svg" viewBox="0 0 64 64">
<rect width="64" height="64" rx="16" fill="#0b0d10"/>
<path fill="#f5f5f7" d="M40.2 20.2c1.9-2.2 3.1-5.3 2.7-8.2-2.7.2-5.8 1.8-7.7 4-1.7 1.9-3.2 4.9-2.8 7.8 3 .2 5.9-1.5 7.8-3.6Zm7.1 24.7c-1.2 2.8-1.8 4-3.4 6.4-2.2 3.3-5.2 7.4-8.9 7.5-3.3 0-4.2-2.1-8.7-2.1s-5.6 2.1-8.9 2.2c-3.7.1-6.6-3.7-8.8-7-6.3-9.6-7-20.8-3.1-26.8 2.7-4.2 7-6.6 11.1-6.6 4.2 0 6.8 2.3 10.2 2.3 3.3 0 5.4-2.3 10.2-2.3 3.6 0 7.4 1.9 10.1 5.1-8.9 4.8-7.4 17.5.2 21.3Z"/>
</svg>
