<svg xmlns="http://www.w3.org/2000/svg" viewBox="0 0 64 64">
<rect width="64" height="64" rx="16" fill="#0b0d10"/>
<path fill="#f5f5f7" d="M24 42.5c0-2.2 1.7-3.8 4.8-4.3l6.8-1V36c0-2.8-1.4-4.3-4.2-4.3-2 0-3.7.8-5.4 2.5l-2.3-4c2.2-2.1 5-3.3 8.4-3.3 5.8 0 9.4 3.1 9.4 8.4v10.1c0 1.3.1 2.4.4 3.5h-5.1l-.6-2.2c-1.8 1.8-4.3 2.8-7.1 2.8-3.3 0-5.9-2.7-5.9-6Zm11.6-.9v-1.1l-4.7.7c-1.5.2-2.4.9-2.4 2s.9 1.9 2.2 1.9c1.8 0 3.7-1.1 4.9-3.5Z"/>
<path fill="none" stroke="#ff9900" stroke-width="4" stroke-linecap="round" d="M18 47c8 5 18.8 6 28 2.5 2.1-.8 3.9-1.8 5.8-3"/>
<path fill="#ff9900" d="M47.8 41.5l5.2 1.4-2.8 4.7z"/>
</svg>
