<svg xmlns="http://www.w3.org/2000/svg" viewBox="0 0 64 64">
<rect width="64" height="64" rx="16" fill="#0b0d10"/>
<g fill="none" stroke-width="7" stroke-linecap="round">
<path d="M49 33.5c0 9.8-7.2 16.8-17.2 16.8-9.8 0-17.8-8-17.8-17.8s8-17.8 17.8-17.8c4.8 0 8.8 1.7 11.8 4.6" stroke="#4285F4"/>
<path d="M43.6 20.1A17.7 17.7 0 0 0 31.8 14.7" stroke="#EA4335"/>
<path d="M17.6 23.4a17.8 17.8 0 0 0 0 18.4" stroke="#FBBC05"/>
<path d="M17.6 41.8a17.6 17.6 0 0 0 14.2 8.5c9.2 0 15.8-6.3 17-15.2H31.8" stroke="#34A853"/>
</g>
<path d="M49 33.5H31.8" stroke="#4285F4" stroke-width="7" stroke-linecap="round"/>
</svg>
