<svg xmlns="http://www.w3.org/2000/svg" viewBox="0 0 64 64">
  <defs>
    <radialGradient id="bg-mrk" cx="30%" cy="25%" r="75%">
      <stop offset="0%" stop-color="#1e293b"/>
      <stop offset="100%" stop-color="#090d16"/>
    </radialGradient>
  </defs>
  <rect width="64" height="64" rx="16" fill="url(#bg-mrk)"/>
  <rect x="0.75" y="0.75" width="62.5" height="62.5" rx="15.25" fill="none" stroke="#ffffff" stroke-opacity="0.12"/>
  <g transform="translate(14, 14) scale(1.5)">
    <title>Merck</title><path d="M6 6a6 6 0 0112 0zm0 12a6 6 0 016-6 6 6 0 01-6-6 6 6 0 000 12 a6 6 0 1012 0zm6-6a6 6 0 016 6 6 6 0 100-12c0 3.314-2.686 6-6 6"/>
  </g>
</svg>