<svg xmlns="http://www.w3.org/2000/svg" viewBox="0 0 64 64">
<rect width="64" height="64" rx="16" fill="#0b0d10"/>
<path fill="#0ea5e9" d="M12 20h40v24H12z"/>
<path fill="#fff" d="M24.4 38.5c-4.3 0-6.7-1.7-8-3.4l2.8-2.6c1.1 1.3 2.6 2.3 5.1 2.3 1.6 0 2.4-.5 2.4-1.4 0-.8-.7-1.2-3.6-1.8-4-.9-6.1-2.2-6.1-5.6s3.1-5.6 7.2-5.6c3.1 0 5.4 1 7 2.7l-2.4 2.9c-1.2-1-2.5-1.7-4.8-1.7-1.3 0-2 .5-2 1.2s.6 1.1 3.6 1.7c4.3 1 6.2 2.6 6.2 5.6 0 3.6-2.8 5.7-7.4 5.7Zm10.6-.3V21.4h8c4.8 0 7.8 2.6 7.8 6.6s-2.8 6.6-7.6 6.6h-3.7v3.6Zm4.6-7.3h3c2.1 0 3.4-1 3.4-2.8s-1.3-2.8-3.4-2.8h-3Z"/>
</svg>
