<svg xmlns="http://www.w3.org/2000/svg" viewBox="0 0 64 64" role="img" aria-label="USD Coin">
  <circle cx="32" cy="32" r="30" fill="#2775CA"/>
  <path fill="#fff" d="M32 15c-9.4 0-17 7.6-17 17s7.6 17 17 17 17-7.6 17-17-7.6-17-17-17Zm0 4c7.2 0 13 5.8 13 13s-5.8 13-13 13-13-5.8-13-13 5.8-13 13-13Z" opacity=".9"/>
  <path fill="#fff" d="M34 22v3.1c2.8.4 4.9 1.8 6.1 3.8l-3.3 1.8c-.9-1.5-2.4-2.3-4.5-2.3-2 0-3.4.8-3.4 2.1 0 1.4 1.4 1.9 4.4 2.4 4 .7 6.8 2 6.8 5.8 0 3.1-2.3 5.2-6.1 5.8V48h-4v-3.4c-3.3-.5-5.8-2.2-7.1-4.7l3.5-1.8c1 1.9 2.9 2.9 5.6 2.9 2.3 0 3.9-.7 3.9-2.1 0-1.5-1.5-2-4.7-2.6-3.8-.7-6.4-2.1-6.4-5.6 0-2.9 2.1-5 5.3-5.6V22h4Z"/>
</svg>
