<svg xmlns="http://www.w3.org/2000/svg" viewBox="0 0 64 64" role="img" aria-label="MetaMask">
  <rect width="64" height="64" rx="18" fill="#111111"/>
  <path d="M10 13l17 8-3 12-10-4-4-16z" fill="#E2761B"/>
  <path d="M54 13l-17 8 3 12 10-4 4-16z" fill="#F6851B"/>
  <path d="M27 21l5 6 5-6-5-8-5 8z" fill="#763D16"/>
  <path d="M24 33l-5 9 10 4 1-11-6-2z" fill="#E4761B"/>
  <path d="M40 33l5 9-10 4-1-11 6-2z" fill="#F6851B"/>
  <path d="M19 42l10 9v-5l-10-4z" fill="#D7C1B3"/>
  <path d="M45 42l-10 9v-5l10-4z" fill="#D7C1B3"/>
  <path d="M29 46l3 2 3-2-1 5h-4l-1-5z" fill="#233447"/>
  <path d="M25 31h5l-1 4-5-2 1-2zM34 31h5l1 2-5 2-1-4z" fill="#fff"/>
  <path d="M27 32h2l-.5 1.6-2-.7.5-.9zM35 32h2l.5.9-2 .7-.5-1.6z" fill="#161616"/>
</svg>
