<svg xmlns="http://www.w3.org/2000/svg" viewBox="0 0 64 64" role="img" aria-label="Phantom">
  <rect width="64" height="64" rx="18" fill="#111111"/>
  <path d="M13 37c0-15 10-26 24-26 12 0 20 9 20 23 0 9-5 15-12 15-3 0-5-1-7-4-3 3-6 5-11 5-8 0-14-5-14-13z" fill="#AB9FF2"/>
  <path d="M19 37c0-11 7-19 18-19 8 0 14 7 14 17 0 6-3 10-7 10-2 0-4-1-5-3-2 2-5 4-9 4-6 0-11-3-11-9z" fill="#fff" opacity=".96"/>
  <circle cx="31" cy="34" r="2" fill="#1B1538"/>
  <circle cx="42" cy="34" r="2" fill="#1B1538"/>
  <path d="M39 41c2 1 5 1 7-1" stroke="#1B1538" stroke-width="2.2" stroke-linecap="round" fill="none"/>
</svg>
